<?xml version="1.0" encoding="utf-8"?>
<!-- Generator: Adobe Illustrator 22.1.0, SVG Export Plug-In . SVG Version: 6.00 Build 0)  -->
<svg version="1.1" id="Слой_1" xmlns="http://www.w3.org/2000/svg" xmlns:xlink="http://www.w3.org/1999/xlink" x="0px" y="0px"
	 viewBox="0 0 32 32" style="enable-background:new 0 0 32 32;" xml:space="preserve">
<style type="text/css">
	.st0{fill:#E7194F;}
</style>
<path id="Arrow_Forward" class="st0" d="M32,16c0-0.3-0.1-0.5-0.3-0.7l-9.9-10c-0.4-0.4-1-0.4-1.4,0c-0.4,0.4-0.4,1,0,1.4l8.2,8.3H1
	c-0.6,0-1,0.5-1,1s0.4,1,1,1h27.6l-8.2,8.3c-0.4,0.4-0.4,1,0,1.4c0.4,0.4,1,0.4,1.4,0l9.9-10C31.9,16.5,32,16.3,32,16z"/>
</svg>
