<?xml version="1.0" encoding="utf-8"?>
<!-- Generator: Adobe Illustrator 22.1.0, SVG Export Plug-In . SVG Version: 6.00 Build 0)  -->
<svg version="1.1" id="Layer_1" xmlns="http://www.w3.org/2000/svg" xmlns:xlink="http://www.w3.org/1999/xlink" x="0px" y="0px"
	 viewBox="0 0 32 32" style="enable-background:new 0 0 32 32;" xml:space="preserve">
<style type="text/css">
	.st0{fill:#00BEC5;}
</style>
<g>
	<path class="st0" d="M12.9,16.5c0,0,3-0.2,3-3.8s-2.5-5.3-5.6-5.3H4.6H4.4H0v19.8h4.4h0.2h5.8c0,0,6.3,0.2,6.3-5.9
		C16.6,21.4,16.9,16.5,12.9,16.5z M4.6,11h5h0.7c0,0,1.4,0,1.4,2.1s-0.8,2.4-1.8,2.4H4.5L4.6,11L4.6,11z M10,23.8
		c-0.2,0-0.3,0-0.4,0h-5v-5.3h5.8c0,0,2.1,0,2.1,2.7C12.4,23.5,10.9,23.7,10,23.8z"/>
	<path class="st0" d="M25,12.5c-7.6,0-7.6,7.6-7.6,7.6s-0.5,7.6,7.6,7.6c0,0,6.8,0.4,6.8-5.3h-3.5c0,0,0.1,2.1-3.2,2.1
		c0,0-3.5,0.2-3.5-3.5h10.3C31.9,21.1,33.1,12.5,25,12.5z M21.6,18.4c0,0,0.4-3.1,3.5-3.1s3,3.1,3,3.1H21.6z"/>
	<rect x="20.8" y="8.6" class="st0" width="8.2" height="2.4"/>
</g>
</svg>
