<?xml version="1.0" encoding="utf-8"?>
<!-- Generator: Adobe Illustrator 22.1.0, SVG Export Plug-In . SVG Version: 6.00 Build 0)  -->
<svg version="1.1" id="Layer_1" xmlns="http://www.w3.org/2000/svg" xmlns:xlink="http://www.w3.org/1999/xlink" x="0px" y="0px"
	 viewBox="0 0 32 32" style="enable-background:new 0 0 32 32;" xml:space="preserve">
<style type="text/css">
	.st0{fill:#00BEC5;}
</style>
<g>
	<path class="st0" d="M16.9,16.1c0.2-0.1,0.3-0.1,0.5-0.2c-0.3-0.7-0.7-1.5-1.1-2.2c-6.7,2-13.1,1.9-13.3,1.9c0,0.1,0,0.3,0,0.4
		c0,3.3,1.3,6.4,3.3,8.7c0,0,0,0,0,0S9.9,18.4,16.9,16.1z"/>
	<path class="st0" d="M15.3,11.7c-2.2-4-4.7-7.3-4.8-7.5C6.8,6,4.1,9.3,3.3,13.3C3.6,13.3,9,13.4,15.3,11.7z"/>
	<path class="st0" d="M24.6,6.2C22.3,4.2,19.3,3,16,3c-1.1,0-2.1,0.1-3.1,0.4c0.2,0.3,2.6,3.5,4.9,7.6C22.7,9.1,24.6,6.3,24.6,6.2z"
		/>
	<path class="st0" d="M12.9,3.4C12.9,3.4,12.9,3.4,12.9,3.4C12.9,3.4,12.9,3.4,12.9,3.4L12.9,3.4z"/>
	<path class="st0" d="M8,26.2L8,26.2c-0.1-0.1-0.2-0.1-0.3-0.2C7.9,26.2,8,26.2,8,26.2z"/>
	<path class="st0" d="M18.8,12.9c0.3,0.6,0.6,1.3,0.9,1.9c0.1,0.2,0.2,0.5,0.3,0.7c4.5-0.6,8.9,0.4,9.1,0.4c0-3.1-1.1-5.9-3-8.1
		C26,7.8,23.9,10.8,18.8,12.9z"/>
	<path class="st0" d="M18.2,18.1C10.5,20.8,8,26.2,8,26.2c2.2,1.7,5,2.8,8,2.8c1.8,0,3.5-0.4,5.1-1C20.9,26.8,20.1,22.8,18.2,18.1
		C18.3,18.1,18.2,18.1,18.2,18.1z"/>
	<path class="st0" d="M20.7,17.5c1.7,4.7,2.4,8.5,2.5,9.3c2.9-2,5-5.1,5.6-8.7C28.6,18,24.9,16.8,20.7,17.5z"/>
</g>
</svg>
