<?xml version="1.0" encoding="utf-8"?>
<!-- Generator: Adobe Illustrator 22.1.0, SVG Export Plug-In . SVG Version: 6.00 Build 0)  -->
<svg version="1.1" id="_1-SEO_Research" xmlns="http://www.w3.org/2000/svg" xmlns:xlink="http://www.w3.org/1999/xlink" x="0px"
	 y="0px" viewBox="0 0 32 32" style="enable-background:new 0 0 32 32;" xml:space="preserve">
<style type="text/css">
	.st0{fill:#00BEC5;}
</style>
<title></title>
<path class="st0" d="M30.5,32h-29C0.7,32,0,31.3,0,30.5v-29C0,0.7,0.7,0,1.5,0h29C31.3,0,32,0.7,32,1.5v29C32,31.3,31.3,32,30.5,32z
	 M1.5,1C1.2,1,1,1.2,1,1.5v29C1,30.8,1.2,31,1.5,31h29c0.3,0,0.5-0.2,0.5-0.5v-29C31,1.2,30.8,1,30.5,1H1.5z"/>
<rect x="0.5" y="4" class="st0" width="31" height="1"/>
<rect x="2" y="2" class="st0" width="1" height="1"/>
<rect x="4" y="2" class="st0" width="1" height="1"/>
<rect x="29" y="2" class="st0" width="1" height="1"/>
<path class="st0" d="M28.5,19.5H24c-0.3,0-0.5-0.2-0.5-0.5v-4.5h1v4h4V19.5z"/>
<path class="st0" d="M29,31.5h-1V19.2L23.8,15H14v-1h10c0.1,0,0.3,0.1,0.4,0.1l4.5,4.5c0.1,0.1,0.1,0.2,0.1,0.4V31.5z"/>
<path class="st0" d="M9.5,27C5.9,27,3,24.1,3,20.5S5.9,14,9.5,14s6.5,2.9,6.5,6.5S13.1,27,9.5,27z M9.5,15c-3,0-5.5,2.5-5.5,5.5
	S6.5,26,9.5,26s5.5-2.5,5.5-5.5S12.5,15,9.5,15z"/>
<rect x="9" y="26.5" class="st0" width="1" height="1.5"/>
<path class="st0" d="M11,32H8c-0.3,0-0.5-0.2-0.5-0.5V28c0-0.3,0.2-0.5,0.5-0.5h3c0.3,0,0.5,0.2,0.5,0.5v3.5
	C11.5,31.8,11.3,32,11,32z M8.5,31h2v-2.5h-2V31z"/>
<path class="st0" d="M6.5,20.5h-1c0-2.2,1.8-4,4-4v1C7.8,17.5,6.5,18.8,6.5,20.5z"/>
<rect x="5.5" y="21.5" class="st0" width="1" height="1"/>
<path class="st0" d="M15,29.5h-2v-1h1.8l2.4-2.4c0.1-0.1,0.2-0.1,0.4-0.1H20c0.1,0,0.3,0.1,0.4,0.1l1.4,1.4h1.6l2.9-2.9l0.7,0.7
	l-3,3c-0.1,0.1-0.2,0.1-0.4,0.1h-2c-0.1,0-0.3-0.1-0.4-0.1L19.8,27h-2.1l-2.4,2.4C15.3,29.4,15.1,29.5,15,29.5z"/>
<path class="st0" d="M25,24.5h-1v-2h-3v-1h3.5c0.3,0,0.5,0.2,0.5,0.5V24.5z"/>
<path class="st0" d="M19.5,24.5h-3v-1H19v-1h-2v-1h2.5c0.3,0,0.5,0.2,0.5,0.5v2C20,24.3,19.8,24.5,19.5,24.5z"/>
<rect x="17" y="19.5" class="st0" width="3" height="1"/>
<rect x="17" y="17.5" class="st0" width="3" height="1"/>
<path class="st0" d="M28.5,12.5h-25C3.2,12.5,3,12.3,3,12V7c0-0.3,0.2-0.5,0.5-0.5h25C28.8,6.5,29,6.7,29,7v5
	C29,12.3,28.8,12.5,28.5,12.5z M4,11.5h24v-4H4V11.5z"/>
<rect x="15.5" y="9" class="st0" width="1" height="1"/>
<rect x="17.5" y="9" class="st0" width="1" height="1"/>
<rect x="13.5" y="9" class="st0" width="1" height="1"/>
</svg>
